<?xml version="1.0" encoding="utf-8"?>
<!-- Generator: Adobe Illustrator 26.3.1, SVG Export Plug-In . SVG Version: 6.00 Build 0)  -->
<svg version="1.1" id="Layer_1" xmlns="http://www.w3.org/2000/svg" xmlns:xlink="http://www.w3.org/1999/xlink" x="0px" y="0px"
	 viewBox="0 0 876.9 331.1" style="enable-background:new 0 0 876.9 331.1;" xml:space="preserve">
<style type="text/css">
	.st0{fill:#FFFFFF;}
	.st1{fill:#D0D2D3;}
</style>
<g>
	<g>
		<g>
			<g>
				<path class="st0" d="M284.9,304.7c-12.8,0-23.2-10.4-23.2-23.2v-20.1c-7.9-1.5-15.5-3.9-22.8-7c-14.2-6-26.8-14.5-37.5-25.2
					c-10.6-10.6-19.1-23.2-25.2-37.3c-6.2-14.4-9.4-29.9-9.4-46.1c0-16.2,3.2-31.7,9.4-46.1c6.1-14.2,14.6-26.7,25.2-37.3
					c10.6-10.6,23.2-19.1,37.3-25.2c14.4-6.2,29.9-9.4,46.1-9.4c16.2,0,31.7,3.2,46.1,9.4c14.2,6.2,26.7,14.6,37.3,25.2
					C379,73,387.5,85.5,393.6,99.7c6.3,14.4,9.4,29.9,9.4,46.1v135.7c0,12.8-10.4,23.2-23.2,23.2H284.9z"/>
				<path class="st1" d="M284.9,50.9c13.1,0,25.4,2.5,36.9,7.5c11.5,5,21.6,11.8,30.2,20.4c8.6,8.6,15.4,18.6,20.4,30.2
					c5,11.5,7.5,23.8,7.5,36.9v135.7h-94.9v-41c-13.1,0-25.4-2.5-36.9-7.4c-11.5-4.9-21.6-11.6-30.2-20.2
					c-8.6-8.6-15.4-18.6-20.4-30.2c-5-11.5-7.5-23.8-7.5-36.9c0-13.1,2.5-25.4,7.5-36.9c5-11.5,11.8-21.6,20.4-30.2
					c8.6-8.6,18.6-15.4,30.2-20.4C259.6,53.4,271.9,50.9,284.9,50.9 M243,152.3c4.7,0,8.6-1.6,11.8-4.7c3.2-3.2,4.7-7.1,4.7-11.8
					c0-4.7-1.6-8.6-4.7-11.8c-3.2-3.2-7.1-4.7-11.8-4.7c-4.7,0-8.6,1.6-11.8,4.7c-3.2,3.2-4.7,7.1-4.7,11.8c0,4.7,1.6,8.6,4.7,11.8
					C234.4,150.7,238.3,152.3,243,152.3 M284.9,4.6c-19.4,0-38,3.8-55.3,11.3c-16.9,7.3-31.8,17.4-44.5,30.1
					c-12.7,12.7-22.8,27.6-30.1,44.5c-7.5,17.3-11.3,35.9-11.3,55.3c0,19.4,3.8,38,11.3,55.3c7.3,16.8,17.4,31.8,30.1,44.5
					c12.8,12.8,27.8,22.9,44.8,30.1c2.9,1.2,5.8,2.3,8.7,3.4v2.4c0,25.6,20.7,46.3,46.3,46.3h94.9c25.6,0,46.3-20.7,46.3-46.3V145.8
					c0-19.4-3.8-38-11.3-55.3c-7.3-16.9-17.4-31.8-30.1-44.5c-12.7-12.7-27.6-22.8-44.5-30.1C322.9,8.4,304.3,4.6,284.9,4.6
					L284.9,4.6z"/>
			</g>
			<g>
				<path class="st0" d="M503.6,305.6c-18.4,0-35.9-3.7-52.1-11.1c-15.8-7.2-29.9-17.3-41.7-29.8c-11.8-12.5-21.1-27.3-27.8-44.1
					c-6.7-16.8-10.1-34.9-10.1-53.9c0-18.8,3.4-36.8,10.1-53.6c6.6-16.7,16-31.5,27.7-44.1c11.8-12.7,25.8-22.8,41.6-30.2
					c16.2-7.5,33.7-11.3,52.2-11.3c18.2,0,35.7,3.8,51.9,11.3c15.8,7.3,29.8,17.5,41.7,30.1c11.8,12.6,21.3,27.4,28,44.1
					c6.8,16.8,10.3,34.9,10.3,53.7c0,19-3.5,37.2-10.3,54c-6.8,16.7-16.2,31.5-28.1,44c-11.9,12.5-26,22.5-41.8,29.8
					C539.2,301.8,521.8,305.6,503.6,305.6z"/>
				<path class="st1" d="M503.6,50.6c14.9,0,28.9,3.1,42.1,9.2c13.2,6.1,24.7,14.4,34.6,25c9.9,10.5,17.7,22.8,23.4,36.9
					c5.7,14.1,8.6,29.1,8.6,45c0,16.1-2.9,31.2-8.6,45.3c-5.7,14.1-13.5,26.3-23.4,36.8c-9.9,10.4-21.4,18.6-34.6,24.7
					c-13.2,6-27.2,9-42.1,9c-15.1,0-29.2-3-42.4-9c-13.2-6-24.7-14.2-34.5-24.7c-9.8-10.4-17.5-22.7-23.1-36.8
					c-5.6-14.1-8.4-29.2-8.4-45.3c0-15.9,2.8-30.9,8.4-45c5.6-14.1,13.3-26.4,23.1-36.9c9.8-10.5,21.3-18.8,34.5-25
					C474.4,53.6,488.5,50.6,503.6,50.6 M503.3,158.1c5.3,0,9.7-1.9,13.3-5.7c3.6-3.8,5.4-8.6,5.4-14.5c0-5.5-1.8-10.2-5.4-14.1
					c-3.6-3.9-8-5.8-13.3-5.8c-5.3,0-9.8,1.9-13.3,5.8c-3.6,3.9-5.4,8.6-5.4,14.1c0,5.9,1.8,10.8,5.4,14.5
					C493.6,156.2,498,158.1,503.3,158.1 M503.6,4.3c-21.8,0-42.7,4.5-62,13.5c-18.5,8.6-35,20.5-48.8,35.4
					c-13.7,14.7-24.6,32-32.3,51.3c-7.8,19.5-11.7,40.4-11.7,62.2c0,22,3.9,43,11.7,62.5c7.7,19.4,18.7,36.7,32.4,51.3
					c13.9,14.8,30.3,26.5,48.9,35c19.2,8.8,39.9,13.2,61.7,13.2c21.5,0,42.2-4.5,61.4-13.2c18.5-8.4,34.9-20.2,48.9-34.8
					c13.9-14.6,24.9-31.8,32.8-51.3c8-19.6,12-40.7,12-62.8c0-21.8-4-42.8-12-62.4c-7.9-19.4-18.8-36.6-32.6-51.2
					c-13.9-14.8-30.3-26.6-48.8-35.2C546,8.8,525.2,4.3,503.6,4.3L503.6,4.3z"/>
			</g>
		</g>
		<g>
			<g>
				<path class="st0" d="M609,304.4c-12.8,0-23.2-10.4-23.2-23.2l-0.2-19.2c0-2.9,0.5-5.8,1.5-8.5c-1-2.7-1.6-5.6-1.5-8.6l0.2-11.2
					c0-9.6,1.9-18.8,5.6-27.4c3.6-8.4,8.6-15.9,14.9-22.3c6.3-6.4,13.8-11.5,22.2-15.2c8.7-3.8,18-5.7,27.8-5.7c0.2,0,0.3,0,0.5,0
					l27.7,0.6c12.6,0.3,22.7,10.5,22.7,23.2v22.6c0,2.9-0.5,5.7-1.5,8.2c1,2.6,1.5,5.3,1.5,8.2v8.2c0,9.7-1.9,18.9-5.7,27.6
					c-3.7,8.4-8.8,15.9-15.2,22.2c-6.4,6.3-13.9,11.3-22.3,14.8c-8.6,3.6-17.8,5.5-27.4,5.5H609z"/>
				<path class="st1" d="M656.3,186.3l27.7,0.6v22.6c-2.4,0-4.3,0.8-5.9,2.3c-1.6,1.6-2.3,3.5-2.3,5.9c0,2.4,0.8,4.3,2.3,5.9
					c1.6,1.6,3.5,2.3,5.9,2.3v8.2c0,6.5-1.2,12.6-3.7,18.3c-2.5,5.7-5.9,10.7-10.2,15c-4.3,4.2-9.3,7.6-15.1,10
					c-5.7,2.4-11.9,3.6-18.3,3.6H609v-0.4l-0.2-19.1c2.4,0,4.3-0.8,5.9-2.3c1.6-1.6,2.3-3.5,2.3-5.9c0-2.4-0.8-4.3-2.3-5.9
					c-1.6-1.6-3.5-2.3-5.9-2.3l0.2-11.4c0-6.5,1.2-12.6,3.7-18.4c2.5-5.8,5.9-10.9,10.1-15.2c4.2-4.3,9.2-7.7,15-10.2
					C643.5,187.6,649.7,186.3,656.3,186.3 M656.3,140c-13,0-25.4,2.6-37,7.6c-11.2,4.9-21.1,11.6-29.5,20.2
					c-8.3,8.4-14.9,18.3-19.7,29.4c-4.9,11.4-7.5,23.6-7.5,36.3l-0.2,11.1c0,3,0.2,6,0.7,9c-0.5,2.8-0.8,5.8-0.7,8.7l0.2,18.9v0.1
					c0,25.6,20.7,46.3,46.3,46.3h27.7c12.7,0,25-2.5,36.4-7.3c11.1-4.7,21.1-11.3,29.5-19.7c8.5-8.4,15.3-18.3,20.2-29.5
					c5-11.6,7.6-24,7.6-36.8V226c0-2.8-0.3-5.6-0.7-8.2c0.5-2.7,0.7-5.4,0.7-8.2v-22.6c0-25.2-20.2-45.8-45.4-46.3l-27.7-0.6
					C656.9,140,656.6,140,656.3,140L656.3,140z"/>
			</g>
		</g>
	</g>
	<g>
		<g>
			<g>
				<path class="st0" d="M283.8,282.6v-41c-12.8-0.1-24.9-2.6-36.2-7.4c-11.6-4.9-21.9-11.8-30.5-20.4c-8.6-8.6-15.6-18.9-20.6-30.5
					c-5-11.6-7.6-24.2-7.6-37.3c0-13.2,2.6-25.7,7.6-37.3c5-11.6,12-21.9,20.6-30.5c8.6-8.6,18.9-15.6,30.5-20.6
					c11.6-5,24.2-7.6,37.3-7.6c13.2,0,25.7,2.6,37.3,7.6c11.6,5,21.9,12,30.5,20.6c8.6,8.6,15.6,18.9,20.6,30.5
					c5,11.6,7.6,24.2,7.6,37.3v136.8H283.8z M243,120.3c-4.4,0-8,1.4-11,4.4c-3,3-4.4,6.6-4.4,11c0,4.4,1.4,8,4.4,11
					c3,3,6.6,4.4,11,4.4c4.4,0,8-1.4,11-4.4c3-3,4.4-6.6,4.4-11c0-4.4-1.4-8-4.4-11C251,121.7,247.4,120.3,243,120.3z"/>
				<path class="st1" d="M284.9,50.9c13.1,0,25.4,2.5,36.9,7.5c11.5,5,21.6,11.8,30.2,20.4c8.6,8.6,15.4,18.6,20.4,30.2
					c5,11.5,7.5,23.8,7.5,36.9v135.7h-94.9v-41c-13.1,0-25.4-2.5-36.9-7.4c-11.5-4.9-21.6-11.6-30.2-20.2
					c-8.6-8.6-15.4-18.6-20.4-30.2c-5-11.5-7.5-23.8-7.5-36.9c0-13.1,2.5-25.4,7.5-36.9c5-11.5,11.8-21.6,20.4-30.2
					c8.6-8.6,18.6-15.4,30.2-20.4C259.6,53.4,271.9,50.9,284.9,50.9 M243,152.3c4.7,0,8.6-1.6,11.8-4.7c3.2-3.2,4.7-7.1,4.7-11.8
					c0-4.7-1.6-8.6-4.7-11.8c-3.2-3.2-7.1-4.7-11.8-4.7c-4.7,0-8.6,1.6-11.8,4.7c-3.2,3.2-4.7,7.1-4.7,11.8c0,4.7,1.6,8.6,4.7,11.8
					C234.4,150.7,238.3,152.3,243,152.3 M284.9,48.7c-13.3,0-26,2.6-37.8,7.7c-11.7,5.1-22.1,12.1-30.8,20.8
					c-8.7,8.7-15.7,19.1-20.8,30.8c-5.1,11.8-7.7,24.5-7.7,37.8c0,13.3,2.6,26,7.7,37.8c5.1,11.7,12.1,22.1,20.8,30.8
					c8.7,8.7,19.1,15.7,30.9,20.7c11.1,4.7,23.1,7.2,35.6,7.5v38.9v2.2h2.2h94.9h2.2v-2.2V145.8c0-13.3-2.6-26-7.7-37.8
					c-5.1-11.7-12.1-22.1-20.8-30.8c-8.7-8.7-19.1-15.7-30.9-20.8C311,51.3,298.2,48.7,284.9,48.7L284.9,48.7z M243,150.1
					c-4.1,0-7.5-1.3-10.2-4.1c-2.8-2.8-4.1-6.1-4.1-10.2c0-4.1,1.3-7.5,4.1-10.2c2.8-2.8,6.1-4.1,10.2-4.1c4.1,0,7.5,1.3,10.2,4.1
					c2.8,2.8,4.1,6.1,4.1,10.2c0,4.1-1.3,7.5-4.1,10.2C250.5,148.7,247.1,150.1,243,150.1L243,150.1z"/>
			</g>
			<g>
				<path class="st0" d="M503.6,283.5c-15.2,0-29.6-3.1-42.9-9.1c-13.2-6-24.9-14.4-34.8-24.9c-9.9-10.5-17.7-23-23.3-37.1
					c-5.6-14.1-8.5-29.5-8.5-45.7c0-16,2.9-31.3,8.5-45.4c5.6-14.1,13.5-26.7,23.3-37.2c9.9-10.6,21.6-19.1,34.8-25.2
					c13.3-6.2,27.7-9.3,42.9-9.3c15,0,29.3,3.1,42.6,9.3c13.2,6.2,25,14.6,34.9,25.2c10,10.6,17.9,23.1,23.6,37.2
					c5.7,14.2,8.7,29.5,8.7,45.4c0,16.2-2.9,31.6-8.7,45.7c-5.7,14.1-13.7,26.6-23.7,37.1c-10,10.5-21.7,18.9-34.9,24.9
					C532.9,280.5,518.6,283.5,503.6,283.5z M503.3,119.1c-5,0-9.1,1.8-12.5,5.5c-3.4,3.7-5.1,8.1-5.1,13.3c0,5.6,1.7,10.2,5.1,13.8
					c3.4,3.6,7.5,5.3,12.5,5.3c5,0,9.1-1.7,12.5-5.3c3.4-3.5,5.1-8.2,5.1-13.8c0-5.2-1.7-9.7-5.1-13.3
					C512.4,120.8,508.3,119.1,503.3,119.1z"/>
				<path class="st1" d="M503.6,50.6c14.9,0,28.9,3.1,42.1,9.2c13.2,6.1,24.7,14.4,34.6,25c9.9,10.5,17.7,22.8,23.4,36.9
					c5.7,14.1,8.6,29.1,8.6,45c0,16.1-2.9,31.2-8.6,45.3c-5.7,14.1-13.5,26.3-23.4,36.8c-9.9,10.4-21.4,18.6-34.6,24.7
					c-13.2,6-27.2,9-42.1,9c-15.1,0-29.2-3-42.4-9c-13.2-6-24.7-14.2-34.5-24.7c-9.8-10.4-17.5-22.7-23.1-36.8
					c-5.6-14.1-8.4-29.2-8.4-45.3c0-15.9,2.8-30.9,8.4-45c5.6-14.1,13.3-26.4,23.1-36.9c9.8-10.5,21.3-18.8,34.5-25
					C474.4,53.6,488.5,50.6,503.6,50.6 M503.3,158.1c5.3,0,9.7-1.9,13.3-5.7c3.6-3.8,5.4-8.6,5.4-14.5c0-5.5-1.8-10.2-5.4-14.1
					c-3.6-3.9-8-5.8-13.3-5.8c-5.3,0-9.8,1.9-13.3,5.8c-3.6,3.9-5.4,8.6-5.4,14.1c0,5.9,1.8,10.8,5.4,14.5
					C493.6,156.2,498,158.1,503.3,158.1 M503.6,48.4c-15.4,0-29.9,3.2-43.3,9.4c-13.4,6.2-25.2,14.8-35.1,25.5
					c-9.9,10.7-17.9,23.3-23.6,37.6c-5.7,14.3-8.6,29.7-8.6,45.8c0,16.3,2.9,31.9,8.6,46.1c5.7,14.3,13.6,26.9,23.6,37.4
					c10,10.6,21.8,19,35.1,25.1c13.4,6.1,28,9.2,43.3,9.2c15.2,0,29.6-3.1,43-9.2c13.4-6.1,25.2-14.6,35.3-25.1
					c10-10.6,18.1-23.2,23.9-37.4c5.8-14.3,8.7-29.8,8.7-46.2c0-16.1-2.9-31.6-8.7-45.9c-5.8-14.3-13.8-26.9-23.9-37.6
					C571.9,72.5,560,64,546.7,57.8C533.3,51.5,518.8,48.4,503.6,48.4L503.6,48.4z M503.3,155.9c-4.7,0-8.6-1.6-11.7-5
					c-3.2-3.4-4.8-7.6-4.8-13c0-5,1.6-9.1,4.8-12.6c3.2-3.4,7-5.1,11.7-5.1c4.7,0,8.5,1.7,11.7,5.1c3.2,3.5,4.8,7.6,4.8,12.6
					c0,5.4-1.6,9.6-4.8,13C511.9,154.2,508,155.9,503.3,155.9L503.3,155.9z"/>
			</g>
		</g>
		<g>
			<g>
				<path class="st0" d="M607.8,282.3v-1.5l-0.2-20.2h1.1c2.1,0,3.8-0.7,5.1-2c1.4-1.4,2-3,2-5.1c0-2.1-0.7-3.8-2-5.1
					c-1.4-1.4-3-2-5.1-2h-1.1l0.2-12.5c0-6.6,1.3-12.9,3.8-18.9c2.5-5.9,6-11.1,10.3-15.5c4.3-4.4,9.5-7.9,15.3-10.4
					c5.9-2.5,12.2-3.8,19-3.8l28.8,0.6v24.8H684c-2.1,0-3.8,0.7-5.1,2c-1.4,1.4-2,3-2,5.1c0,2.1,0.7,3.8,2,5.1c1.4,1.4,3,2,5.1,2
					h1.1v9.3c0,6.6-1.3,12.9-3.8,18.8c-2.5,5.8-6.1,11-10.4,15.3c-4.4,4.3-9.6,7.8-15.4,10.2c-5.8,2.5-12.2,3.7-18.8,3.7H607.8z"/>
				<path class="st1" d="M656.3,186.3l27.7,0.6v22.6c-2.4,0-4.3,0.8-5.9,2.3c-1.6,1.6-2.3,3.5-2.3,5.9c0,2.4,0.8,4.3,2.3,5.9
					c1.6,1.6,3.5,2.3,5.9,2.3v8.2c0,6.5-1.2,12.6-3.7,18.3c-2.5,5.7-5.9,10.7-10.2,15c-4.3,4.2-9.3,7.6-15.1,10
					c-5.7,2.4-11.9,3.6-18.3,3.6H609v-0.4l-0.2-19.1c2.4,0,4.3-0.8,5.9-2.3c1.6-1.6,2.3-3.5,2.3-5.9c0-2.4-0.8-4.3-2.3-5.9
					c-1.6-1.6-3.5-2.3-5.9-2.3l0.2-11.4c0-6.5,1.2-12.6,3.7-18.4c2.5-5.8,5.9-10.9,10.1-15.2c4.2-4.3,9.2-7.7,15-10.2
					C643.5,187.6,649.7,186.3,656.3,186.3 M656.3,184.1L656.3,184.1c-6.9,0-13.4,1.3-19.4,3.9c-6,2.6-11.2,6.2-15.7,10.7
					c-4.4,4.5-8,9.8-10.6,15.8c-2.6,6-3.9,12.5-3.9,19.3l-0.2,11.4l0,2.2h2.2c1.8,0,3.2,0.6,4.3,1.7c1.1,1.1,1.7,2.6,1.7,4.3
					c0,1.8-0.6,3.2-1.7,4.3c-1.1,1.1-2.6,1.7-4.3,1.7h-2.2l0,2.2l0.2,19.1l0,0.4v2.2h2.2h27.7c6.8,0,13.2-1.3,19.2-3.8
					c6-2.5,11.3-6.1,15.8-10.5c4.5-4.4,8.1-9.7,10.7-15.7c2.6-6,3.9-12.5,3.9-19.2V226v-2.2H684c-1.8,0-3.2-0.6-4.3-1.7
					c-1.1-1.1-1.7-2.6-1.7-4.3c0-1.8,0.6-3.2,1.7-4.3c1.1-1.1,2.6-1.7,4.3-1.7h2.2v-2.2v-22.6v-2.2l-2.2,0L656.3,184.1L656.3,184.1
					L656.3,184.1z"/>
			</g>
		</g>
	</g>
	<g>
		<g>
			<g>
				<path class="st0" d="M283.8,282.6v-41c-12.8-0.1-24.9-2.6-36.2-7.4c-11.6-4.9-21.9-11.8-30.5-20.4c-8.6-8.6-15.6-18.9-20.6-30.5
					c-5-11.6-7.6-24.2-7.6-37.3c0-13.2,2.6-25.7,7.6-37.3c5-11.6,12-21.9,20.6-30.5c8.6-8.6,18.9-15.6,30.5-20.6
					c11.6-5,24.2-7.6,37.3-7.6c13.2,0,25.7,2.6,37.3,7.6c11.6,5,21.9,12,30.5,20.6c8.6,8.6,15.6,18.9,20.6,30.5
					c5,11.6,7.6,24.2,7.6,37.3v136.8H283.8z M243,120.3c-4.4,0-8,1.4-11,4.4c-3,3-4.4,6.6-4.4,11c0,4.4,1.4,8,4.4,11
					c3,3,6.6,4.4,11,4.4c4.4,0,8-1.4,11-4.4c3-3,4.4-6.6,4.4-11c0-4.4-1.4-8-4.4-11C251,121.7,247.4,120.3,243,120.3z"/>
				<path class="st1" d="M284.9,50.9c13.1,0,25.4,2.5,36.9,7.5c11.5,5,21.6,11.8,30.2,20.4c8.6,8.6,15.4,18.6,20.4,30.2
					c5,11.5,7.5,23.8,7.5,36.9v135.7h-94.9v-41c-13.1,0-25.4-2.5-36.9-7.4c-11.5-4.9-21.6-11.6-30.2-20.2
					c-8.6-8.6-15.4-18.6-20.4-30.2c-5-11.5-7.5-23.8-7.5-36.9c0-13.1,2.5-25.4,7.5-36.9c5-11.5,11.8-21.6,20.4-30.2
					c8.6-8.6,18.6-15.4,30.2-20.4C259.6,53.4,271.9,50.9,284.9,50.9 M243,152.3c4.7,0,8.6-1.6,11.8-4.7c3.2-3.2,4.7-7.1,4.7-11.8
					c0-4.7-1.6-8.6-4.7-11.8c-3.2-3.2-7.1-4.7-11.8-4.7c-4.7,0-8.6,1.6-11.8,4.7c-3.2,3.2-4.7,7.1-4.7,11.8c0,4.7,1.6,8.6,4.7,11.8
					C234.4,150.7,238.3,152.3,243,152.3 M284.9,48.7c-13.3,0-26,2.6-37.8,7.7c-11.7,5.1-22.1,12.1-30.8,20.8
					c-8.7,8.7-15.7,19.1-20.8,30.8c-5.1,11.8-7.7,24.5-7.7,37.8c0,13.3,2.6,26,7.7,37.8c5.1,11.7,12.1,22.1,20.8,30.8
					c8.7,8.7,19.1,15.7,30.9,20.7c11.1,4.7,23.1,7.2,35.6,7.5v38.9v2.2h2.2h94.9h2.2v-2.2V145.8c0-13.3-2.6-26-7.7-37.8
					c-5.1-11.7-12.1-22.1-20.8-30.8c-8.7-8.7-19.1-15.7-30.9-20.8C311,51.3,298.2,48.7,284.9,48.7L284.9,48.7z M243,150.1
					c-4.1,0-7.5-1.3-10.2-4.1c-2.8-2.8-4.1-6.1-4.1-10.2c0-4.1,1.3-7.5,4.1-10.2c2.8-2.8,6.1-4.1,10.2-4.1c4.1,0,7.5,1.3,10.2,4.1
					c2.8,2.8,4.1,6.1,4.1,10.2c0,4.1-1.3,7.5-4.1,10.2C250.5,148.7,247.1,150.1,243,150.1L243,150.1z"/>
			</g>
			<g>
				<path class="st0" d="M503.6,283.5c-15.2,0-29.6-3.1-42.9-9.1c-13.2-6-24.9-14.4-34.8-24.9c-9.9-10.5-17.7-23-23.3-37.1
					c-5.6-14.1-8.5-29.5-8.5-45.7c0-16,2.9-31.3,8.5-45.4c5.6-14.1,13.5-26.7,23.3-37.2c9.9-10.6,21.6-19.1,34.8-25.2
					c13.3-6.2,27.7-9.3,42.9-9.3c15,0,29.3,3.1,42.6,9.3c13.2,6.2,25,14.6,34.9,25.2c10,10.6,17.9,23.1,23.6,37.2
					c5.7,14.2,8.7,29.5,8.7,45.4c0,16.2-2.9,31.6-8.7,45.7c-5.7,14.1-13.7,26.6-23.7,37.1c-10,10.5-21.7,18.9-34.9,24.9
					C532.9,280.5,518.6,283.5,503.6,283.5z M503.3,119.1c-5,0-9.1,1.8-12.5,5.5c-3.4,3.7-5.1,8.1-5.1,13.3c0,5.6,1.7,10.2,5.1,13.8
					c3.4,3.6,7.5,5.3,12.5,5.3c5,0,9.1-1.7,12.5-5.3c3.4-3.5,5.1-8.2,5.1-13.8c0-5.2-1.7-9.7-5.1-13.3
					C512.4,120.8,508.3,119.1,503.3,119.1z"/>
				<path class="st1" d="M503.6,50.6c14.9,0,28.9,3.1,42.1,9.2c13.2,6.1,24.7,14.4,34.6,25c9.9,10.5,17.7,22.8,23.4,36.9
					c5.7,14.1,8.6,29.1,8.6,45c0,16.1-2.9,31.2-8.6,45.3c-5.7,14.1-13.5,26.3-23.4,36.8c-9.9,10.4-21.4,18.6-34.6,24.7
					c-13.2,6-27.2,9-42.1,9c-15.1,0-29.2-3-42.4-9c-13.2-6-24.7-14.2-34.5-24.7c-9.8-10.4-17.5-22.7-23.1-36.8
					c-5.6-14.1-8.4-29.2-8.4-45.3c0-15.9,2.8-30.9,8.4-45c5.6-14.1,13.3-26.4,23.1-36.9c9.8-10.5,21.3-18.8,34.5-25
					C474.4,53.6,488.5,50.6,503.6,50.6 M503.3,158.1c5.3,0,9.7-1.9,13.3-5.7c3.6-3.8,5.4-8.6,5.4-14.5c0-5.5-1.8-10.2-5.4-14.1
					c-3.6-3.9-8-5.8-13.3-5.8c-5.3,0-9.8,1.9-13.3,5.8c-3.6,3.9-5.4,8.6-5.4,14.1c0,5.9,1.8,10.8,5.4,14.5
					C493.6,156.2,498,158.1,503.3,158.1 M503.6,48.4c-15.4,0-29.9,3.2-43.3,9.4c-13.4,6.2-25.2,14.8-35.1,25.5
					c-9.9,10.7-17.9,23.3-23.6,37.6c-5.7,14.3-8.6,29.7-8.6,45.8c0,16.3,2.9,31.9,8.6,46.1c5.7,14.3,13.6,26.9,23.6,37.4
					c10,10.6,21.8,19,35.1,25.1c13.4,6.1,28,9.2,43.3,9.2c15.2,0,29.6-3.1,43-9.2c13.4-6.1,25.2-14.6,35.3-25.1
					c10-10.6,18.1-23.2,23.9-37.4c5.8-14.3,8.7-29.8,8.7-46.2c0-16.1-2.9-31.6-8.7-45.9c-5.8-14.3-13.8-26.9-23.9-37.6
					C571.9,72.5,560,64,546.7,57.8C533.3,51.5,518.8,48.4,503.6,48.4L503.6,48.4z M503.3,155.9c-4.7,0-8.6-1.6-11.7-5
					c-3.2-3.4-4.8-7.6-4.8-13c0-5,1.6-9.1,4.8-12.6c3.2-3.4,7-5.1,11.7-5.1c4.7,0,8.5,1.7,11.7,5.1c3.2,3.5,4.8,7.6,4.8,12.6
					c0,5.4-1.6,9.6-4.8,13C511.9,154.2,508,155.9,503.3,155.9L503.3,155.9z"/>
			</g>
		</g>
		<g>
			<g>
				<path class="st0" d="M607.8,282.3v-1.5l-0.2-20.2h1.1c2.1,0,3.8-0.7,5.1-2c1.4-1.4,2-3,2-5.1c0-2.1-0.7-3.8-2-5.1
					c-1.4-1.4-3-2-5.1-2h-1.1l0.2-12.5c0-6.6,1.3-12.9,3.8-18.9c2.5-5.9,6-11.1,10.3-15.5c4.3-4.4,9.5-7.9,15.3-10.4
					c5.9-2.5,12.2-3.8,19-3.8l28.8,0.6v24.8H684c-2.1,0-3.8,0.7-5.1,2c-1.4,1.4-2,3-2,5.1c0,2.1,0.7,3.8,2,5.1c1.4,1.4,3,2,5.1,2
					h1.1v9.3c0,6.6-1.3,12.9-3.8,18.8c-2.5,5.8-6.1,11-10.4,15.3c-4.4,4.3-9.6,7.8-15.4,10.2c-5.8,2.5-12.2,3.7-18.8,3.7H607.8z"/>
				<path class="st1" d="M656.3,186.3l27.7,0.6v22.6c-2.4,0-4.3,0.8-5.9,2.3c-1.6,1.6-2.3,3.5-2.3,5.9c0,2.4,0.8,4.3,2.3,5.9
					c1.6,1.6,3.5,2.3,5.9,2.3v8.2c0,6.5-1.2,12.6-3.7,18.3c-2.5,5.7-5.9,10.7-10.2,15c-4.3,4.2-9.3,7.6-15.1,10
					c-5.7,2.4-11.9,3.6-18.3,3.6H609v-0.4l-0.2-19.1c2.4,0,4.3-0.8,5.9-2.3c1.6-1.6,2.3-3.5,2.3-5.9c0-2.4-0.8-4.3-2.3-5.9
					c-1.6-1.6-3.5-2.3-5.9-2.3l0.2-11.4c0-6.5,1.2-12.6,3.7-18.4c2.5-5.8,5.9-10.9,10.1-15.2c4.2-4.3,9.2-7.7,15-10.2
					C643.5,187.6,649.7,186.3,656.3,186.3 M656.3,184.1L656.3,184.1c-6.9,0-13.4,1.3-19.4,3.9c-6,2.6-11.2,6.2-15.7,10.7
					c-4.4,4.5-8,9.8-10.6,15.8c-2.6,6-3.9,12.5-3.9,19.3l-0.2,11.4l0,2.2h2.2c1.8,0,3.2,0.6,4.3,1.7c1.1,1.1,1.7,2.6,1.7,4.3
					c0,1.8-0.6,3.2-1.7,4.3c-1.1,1.1-2.6,1.7-4.3,1.7h-2.2l0,2.2l0.2,19.1l0,0.4v2.2h2.2h27.7c6.8,0,13.2-1.3,19.2-3.8
					c6-2.5,11.3-6.1,15.8-10.5c4.5-4.4,8.1-9.7,10.7-15.7c2.6-6,3.9-12.5,3.9-19.2V226v-2.2H684c-1.8,0-3.2-0.6-4.3-1.7
					c-1.1-1.1-1.7-2.6-1.7-4.3c0-1.8,0.6-3.2,1.7-4.3c1.1-1.1,2.6-1.7,4.3-1.7h2.2v-2.2v-22.6v-2.2l-2.2,0L656.3,184.1L656.3,184.1
					L656.3,184.1z"/>
			</g>
		</g>
	</g>
</g>
</svg>
