<?xml version="1.0" encoding="utf-8"?>
<!-- Generator: Adobe Illustrator 26.2.1, SVG Export Plug-In . SVG Version: 6.00 Build 0)  -->
<svg version="1.1" id="Layer_1" xmlns="http://www.w3.org/2000/svg" xmlns:xlink="http://www.w3.org/1999/xlink" x="0px" y="0px"
	 viewBox="0 0 278.1 32.2" style="enable-background:new 0 0 278.1 32.2;" xml:space="preserve">
<style type="text/css">
	.st0{fill:#FFFFFF;}
</style>
<g>
	<path class="st0" d="M18.1,30V17.6H7.2V30H1.4V2.2h5.8v10.6h10.9V2.2h5.8V30H18.1z"/>
	<path class="st0" d="M46.6,24c-0.1,1.2-0.8,2.5-1.9,3.7c-1.8,2-4.2,3-7.4,3c-2.6,0-4.9-0.8-6.9-2.5s-3-4.4-3-8.2
		c0-3.6,0.9-6.3,2.7-8.2c1.8-1.9,4.2-2.9,7-2.9c1.7,0,3.3,0.3,4.6,1s2.5,1.7,3.4,3c0.8,1.2,1.3,2.6,1.6,4.3c0.1,0.9,0.2,2.3,0.2,4.1
		H32.8c0.1,2.1,0.7,3.5,1.9,4.3c0.7,0.5,1.6,0.8,2.7,0.8c1.1,0,2-0.3,2.7-0.9c0.4-0.3,0.7-0.8,1-1.4H46.6z M41.3,17.7
		c-0.1-1.4-0.5-2.5-1.3-3.2c-0.8-0.7-1.7-1.1-2.9-1.1c-1.2,0-2.2,0.4-2.9,1.2c-0.7,0.8-1.1,1.8-1.3,3.2H41.3z"/>
	<path class="st0" d="M50.6,2.2H56V30h-5.4V2.2z"/>
	<path class="st0" d="M59.2,9.4h6l4.3,15.2L74,9.4h5.8L72.3,30h-5.7L59.2,9.4z"/>
	<path class="st0" d="M100.4,24c-0.1,1.2-0.8,2.5-1.9,3.7c-1.8,2-4.2,3-7.4,3c-2.6,0-4.9-0.8-6.9-2.5s-3-4.4-3-8.2
		c0-3.6,0.9-6.3,2.7-8.2c1.8-1.9,4.2-2.9,7-2.9c1.7,0,3.3,0.3,4.6,1s2.5,1.7,3.4,3c0.8,1.2,1.3,2.6,1.6,4.3c0.1,0.9,0.2,2.3,0.2,4.1
		H86.6c0.1,2.1,0.7,3.5,1.9,4.3c0.7,0.5,1.6,0.8,2.7,0.8c1.1,0,2-0.3,2.7-0.9c0.4-0.3,0.7-0.8,1-1.4H100.4z M95.1,17.7
		c-0.1-1.4-0.5-2.5-1.3-3.2c-0.8-0.7-1.7-1.1-2.9-1.1c-1.2,0-2.2,0.4-2.9,1.2c-0.7,0.8-1.1,1.8-1.3,3.2H95.1z"/>
	<path class="st0" d="M113.7,26.2v4l-2.6,0.1c-2.5,0.1-4.3-0.4-5.2-1.3c-0.6-0.6-0.9-1.6-0.9-2.9V13.4h-2.9V9.6h2.9V3.9h5.3v5.7h3.3
		v3.8h-3.3v10.9c0,0.8,0.1,1.4,0.3,1.6c0.2,0.2,0.9,0.3,2,0.3c0.2,0,0.3,0,0.5,0C113.4,26.2,113.6,26.2,113.7,26.2z"/>
	<path class="st0" d="M122.7,2v5h-5.5V2H122.7z M122.7,9.4V30h-5.5V9.4H122.7z"/>
	<path class="st0" d="M145.8,16.8h-5.5c-0.1-0.8-0.4-1.5-0.8-2.1c-0.6-0.8-1.5-1.2-2.8-1.2c-1.8,0-3.1,0.9-3.7,2.7
		c-0.4,1-0.5,2.2-0.5,3.8c0,1.5,0.2,2.7,0.5,3.6c0.6,1.7,1.9,2.6,3.6,2.6c1.3,0,2.2-0.3,2.7-1c0.5-0.7,0.9-1.6,1-2.6h5.5
		c-0.1,1.6-0.7,3.2-1.8,4.6c-1.7,2.4-4.2,3.5-7.5,3.5s-5.8-1-7.3-2.9c-1.6-2-2.3-4.5-2.3-7.7c0-3.5,0.9-6.3,2.6-8.3
		c1.7-2,4.1-2.9,7.1-2.9c2.6,0,4.7,0.6,6.3,1.7C144.5,11.8,145.5,13.9,145.8,16.8z"/>
	<path class="st0" d="M150.3,11.7c1.4-1.8,3.9-2.7,7.3-2.7c2.3,0,4.3,0.4,6,1.3c1.8,0.9,2.6,2.6,2.6,5.1v9.5c0,0.7,0,1.4,0,2.4
		c0,0.7,0.1,1.2,0.3,1.4s0.4,0.5,0.8,0.6V30h-5.9c-0.2-0.4-0.3-0.8-0.3-1.2c-0.1-0.4-0.1-0.8-0.2-1.2c-0.7,0.8-1.6,1.5-2.6,2.1
		c-1.2,0.7-2.5,1-3.9,1c-1.9,0-3.4-0.5-4.6-1.6c-1.2-1.1-1.8-2.6-1.8-4.5c0-2.5,1-4.4,2.9-5.5c1.1-0.6,2.6-1.1,4.7-1.3l1.8-0.2
		c1-0.1,1.7-0.3,2.1-0.5c0.8-0.3,1.2-0.8,1.2-1.5c0-0.8-0.3-1.4-0.9-1.7s-1.4-0.5-2.6-0.5c-1.3,0-2.2,0.3-2.7,0.9
		c-0.4,0.5-0.6,1.1-0.8,1.9h-5.2C148.9,14.3,149.4,12.8,150.3,11.7z M154.3,26.1c0.5,0.4,1.1,0.6,1.9,0.6c1.2,0,2.2-0.3,3.2-1
		c1-0.7,1.5-1.9,1.5-3.7v-2c-0.3,0.2-0.7,0.4-1,0.5s-0.8,0.3-1.4,0.4l-1.2,0.2c-1.1,0.2-1.9,0.4-2.4,0.7c-0.8,0.5-1.2,1.3-1.2,2.3
		C153.5,25.1,153.7,25.7,154.3,26.1z"/>
	<path class="st0" d="M172.7,21.7c0.1,1.2,0.4,2.3,0.8,3.2c0.5,0.9,1,1.6,1.7,2.1c0.7,0.5,1.5,0.9,2.5,1.2c0.9,0.2,1.9,0.4,3,0.4
		c1.2,0,2.3-0.2,3.2-0.5s1.6-0.7,2.2-1.3c0.6-0.5,1-1.1,1.3-1.8c0.3-0.7,0.4-1.4,0.4-2.2c0-1.1-0.2-2-0.7-2.6
		c-0.5-0.7-1.1-1.2-1.9-1.6s-1.7-0.8-2.7-1c-1-0.3-2.1-0.5-3.1-0.8c-1.1-0.2-2.1-0.5-3.1-0.9c-1-0.3-1.9-0.8-2.7-1.4
		c-0.8-0.6-1.4-1.3-1.9-2.2s-0.7-2-0.7-3.4c0-1,0.2-1.9,0.6-2.8c0.4-0.9,1-1.7,1.8-2.4c0.8-0.7,1.8-1.3,3-1.7
		c1.2-0.4,2.6-0.6,4.1-0.6c1.6,0,2.9,0.2,4.1,0.7c1.2,0.4,2.1,1,2.9,1.8c0.8,0.8,1.4,1.6,1.7,2.7c0.4,1,0.6,2.1,0.6,3.2h-2.5
		c0-1.1-0.2-2-0.6-2.7c-0.4-0.8-0.9-1.4-1.5-1.9c-0.6-0.5-1.4-0.9-2.2-1.1c-0.8-0.2-1.7-0.3-2.6-0.3c-1.3,0-2.5,0.2-3.4,0.6
		c-0.9,0.4-1.6,0.9-2.2,1.5c-0.5,0.6-0.9,1.3-1.1,2c-0.2,0.7-0.2,1.4-0.1,2.2c0.2,0.9,0.5,1.6,1.1,2.2c0.6,0.5,1.3,1,2.1,1.3
		c0.8,0.3,1.7,0.6,2.7,0.9c1,0.2,2,0.5,3,0.7c1,0.2,2,0.5,3,0.9c1,0.3,1.8,0.8,2.6,1.4c0.7,0.6,1.3,1.3,1.8,2.2
		c0.5,0.9,0.7,2,0.7,3.3c0,2.6-0.9,4.6-2.7,6c-1.8,1.4-4.3,2.1-7.5,2.1c-1.4,0-2.8-0.2-4-0.6s-2.3-0.9-3.2-1.7
		c-0.9-0.8-1.6-1.7-2.1-2.8c-0.5-1.1-0.8-2.4-0.8-4H172.7z"/>
	<path class="st0" d="M202,30.1c-0.3,0.1-0.7,0.1-1.1,0.3c-0.5,0.1-1,0.2-1.5,0.2c-1.2,0-2-0.3-2.7-0.9c-0.6-0.6-0.9-1.6-0.9-3.1
		V11.9h-2.8V10h2.8V4.4h2.3V10h3.8v1.9h-3.8v13.7c0,0.5,0,0.9,0,1.3c0,0.4,0.1,0.7,0.2,0.9c0.1,0.2,0.3,0.4,0.6,0.5
		c0.3,0.1,0.7,0.2,1.1,0.2c0.3,0,0.6,0,0.9-0.1c0.3-0.1,0.6-0.1,0.9-0.2V30.1z"/>
	<path class="st0" d="M219.3,10h2.3V30h-2.3v-2.8c-0.3,0.4-0.7,0.7-1,1.1c-0.4,0.4-0.8,0.7-1.3,1.1c-0.5,0.3-1.1,0.6-1.8,0.8
		c-0.7,0.2-1.4,0.3-2.3,0.3c-1.3,0-2.5-0.2-3.4-0.6s-1.6-0.9-2.2-1.6c-0.6-0.7-1-1.5-1.2-2.3c-0.2-0.9-0.4-1.9-0.4-2.9V10h2.3v13.2
		c0,1.7,0.4,3.1,1.2,4c0.8,0.9,2.1,1.4,3.9,1.4c1,0,1.8-0.2,2.6-0.6c0.8-0.4,1.4-0.9,1.9-1.6c0.5-0.7,0.9-1.5,1.2-2.4
		c0.3-0.9,0.4-1.9,0.4-3.1V10z"/>
	<path class="st0" d="M242.7,2.2h2.3V30h-2.3v-3.5h-0.1c-0.3,0.7-0.8,1.3-1.3,1.8c-0.5,0.5-1.1,0.9-1.7,1.3c-0.6,0.3-1.3,0.6-2,0.8
		s-1.3,0.3-2,0.3c-1.6,0-3-0.3-4.1-0.8c-1.1-0.5-2.1-1.3-2.8-2.2c-0.7-0.9-1.3-2.1-1.6-3.3c-0.3-1.3-0.5-2.7-0.5-4.1
		c0-1.4,0.2-2.7,0.5-4c0.4-1.3,0.9-2.4,1.6-3.4c0.7-1,1.7-1.7,2.8-2.3c1.1-0.6,2.4-0.9,4-0.9c1.4,0,2.8,0.3,4.1,0.9s2.3,1.6,3.1,2.8
		V2.2z M242.7,19.9c0-1.1-0.2-2.2-0.5-3.2c-0.3-1-0.8-1.9-1.3-2.7c-0.6-0.8-1.3-1.4-2.1-1.8c-0.8-0.5-1.8-0.7-2.8-0.7
		c-1.2,0-2.3,0.2-3.1,0.7c-0.9,0.5-1.6,1.1-2.2,2c-0.6,0.8-1,1.8-1.2,2.9c-0.3,1.1-0.4,2.3-0.3,3.5c0,1.3,0.2,2.4,0.5,3.3
		c0.3,1,0.8,1.8,1.5,2.5s1.3,1.2,2.2,1.5c0.8,0.3,1.7,0.5,2.7,0.5c1.1,0,2.1-0.2,2.9-0.7s1.6-1,2.1-1.8c0.6-0.8,1-1.7,1.3-2.7
		C242.5,22.3,242.7,21.1,242.7,19.9z"/>
	<path class="st0" d="M251.1,5.6V2.2h2.6v3.4H251.1z M251.2,30V10h2.3V30H251.2z"/>
	<path class="st0" d="M267.4,30.6c-1.3,0-2.5-0.3-3.6-0.7c-1.1-0.4-2.1-1.1-2.9-2c-0.8-0.9-1.5-2-2-3.3c-0.5-1.3-0.7-2.9-0.7-4.6
		c0-1.5,0.2-2.8,0.6-4.1s1-2.4,1.7-3.3c0.8-1,1.7-1.7,2.9-2.3c1.2-0.6,2.5-0.8,4.1-0.8c1.6,0,2.9,0.3,4.1,0.8
		c1.2,0.6,2.1,1.3,2.9,2.2s1.3,2.1,1.7,3.3c0.4,1.3,0.6,2.7,0.6,4.1c0,1.6-0.2,3-0.7,4.3c-0.4,1.3-1.1,2.4-1.9,3.3
		c-0.8,0.9-1.8,1.6-2.9,2.1C270.1,30.3,268.8,30.6,267.4,30.6z M274.2,20c0-1.2-0.1-2.3-0.4-3.3c-0.3-1-0.7-1.9-1.2-2.7
		c-0.5-0.8-1.2-1.4-2.1-1.8c-0.9-0.4-1.9-0.7-3.1-0.7c-1.2,0-2.3,0.2-3.1,0.7s-1.6,1.1-2.1,1.9c-0.5,0.8-0.9,1.7-1.2,2.7
		c-0.3,1-0.4,2.1-0.4,3.2c0,1.2,0.1,2.4,0.4,3.4c0.3,1,0.7,1.9,1.3,2.7c0.6,0.7,1.3,1.3,2.1,1.7c0.9,0.4,1.8,0.6,2.9,0.6
		c1.2,0,2.3-0.2,3.1-0.7c0.9-0.5,1.6-1.1,2.1-1.9s0.9-1.7,1.2-2.7C274.1,22.1,274.2,21.1,274.2,20z"/>
</g>
</svg>
