<?xml version="1.0" encoding="utf-8"?>
<!-- Generator: Adobe Illustrator 26.3.1, SVG Export Plug-In . SVG Version: 6.00 Build 0)  -->
<svg version="1.1" id="Layer_1" xmlns="http://www.w3.org/2000/svg" xmlns:xlink="http://www.w3.org/1999/xlink" x="0px" y="0px"
	 viewBox="0 0 876.9 331.1" style="enable-background:new 0 0 876.9 331.1;" xml:space="preserve">
<style type="text/css">
	.st0{fill:#D1D3D4;}
</style>
<g>
	<g>
		<path class="st0" d="M0.5,206.2V98.6h12.3v107.6H0.5z"/>
		<path class="st0" d="M36.3,206.2v-81.2h12.3v12.4c1.8-3.2,4.8-6.3,8.7-9.2c4-2.9,9.4-4.4,15.9-4.4c5.4,0,10.4,1.4,15,4.3
			s8.3,6.9,10.9,12.1c1.1-1.8,2.8-4.1,5.1-6.6c2.3-2.6,5.4-4.9,9.2-6.9c3.8-2,8.3-2.9,13.6-2.9c5.2,0,10.1,1.4,14.6,4.1
			c4.6,2.8,8.3,6.6,11.2,11.6c2.9,5.1,4.3,11,4.3,17.8v49h-12.3v-48.9c0-6.9-2-12.3-5.8-16.6c-3.8-4.1-8.6-6.3-14.4-6.3
			c-6,0-11,2-15.5,6c-4.3,4-6.4,9.7-6.4,16.9V206H90.4v-48.6c0-6.9-2-12.3-5.8-16.6c-3.8-4.1-8.6-6.3-14.4-6.3c-6,0-11,2-15.5,6
			c-4.3,4-6.4,9.7-6.4,16.9V206h-12V206.2z"/>
		<path class="st0" d="M177.5,238.4V124.9h12.3v13c3.1-4.4,6.9-8,11.8-10.4c4.8-2.6,10.6-3.8,17.3-3.8c8,0,14.9,1.8,20.7,5.7
			c6,3.7,10.4,8.7,13.8,15.2c3.4,6.4,4.9,13.5,4.9,21.2c0,7.7-1.7,14.7-4.9,21.2c-3.2,6.4-7.8,11.5-13.8,15.2
			c-6,3.7-12.9,5.7-20.7,5.7c-6.7,0-12.4-1.4-17.3-4c-4.8-2.6-8.7-6.1-11.8-10.4v45.4h-12.3V238.4z M217.2,196.5
			c6.1,0,11.2-1.4,15.5-4.3c4.3-2.8,7.5-6.6,9.8-11.3c2.3-4.8,3.4-9.8,3.4-15.3c0-5.7-1.1-10.7-3.4-15.5c-2.3-4.6-5.5-8.4-9.8-11.2
			c-4.3-2.8-9.5-4.3-15.5-4.3c-6,0-11,1.4-15.3,4.3c-4.3,2.8-7.4,6.6-9.7,11.2c-2.1,4.6-3.2,9.8-3.2,15.5c0,5.5,1.1,10.6,3.2,15.3
			c2.1,4.8,5.4,8.4,9.7,11.3S211.2,196.5,217.2,196.5z"/>
		<path class="st0" d="M274.2,206.2v-81.2h12.3v19.9c0.5-1.4,1.2-3.2,2.5-5.7c1.2-2.3,3.1-4.8,5.5-7.1c2.5-2.5,5.4-4.4,9-6.1
			c3.7-1.7,8-2.5,12.9-2.5h0.8v12.3h-1.5c-6.1,0-11.3,1.7-15.6,4.9c-4.4,3.4-7.8,7.5-10.1,12.9c-2.3,5.2-3.5,10.9-3.5,16.9v35.7
			H274.2z"/>
		<path class="st0" d="M364.3,207.5c-8.3,0-15.5-1.8-21.6-5.7c-6.1-3.8-11-8.7-14.4-15.2c-3.4-6.4-5.1-13.5-5.1-21.2
			c0-7.8,1.7-14.9,4.9-21.2c3.2-6.3,8-11.3,13.9-15.2c6.1-3.7,13.2-5.7,21.5-5.7c8.3,0,15.5,1.8,21.6,5.7c6,3.7,10.6,8.7,13.9,15.2
			c3.2,6.3,4.9,13.5,4.9,21.2v4.9H336c0.6,4.8,2.1,9.2,4.6,13c2.5,4,5.7,7.1,9.8,9.5c4.1,2.3,8.9,3.5,14.3,3.5
			c5.7,0,10.6-1.2,14.4-3.8c3.8-2.6,6.9-5.8,9-9.8h13.3c-2.8,7.2-7.4,13.2-13.5,17.8C381.8,205.2,374,207.5,364.3,207.5z
			 M335.8,159.1h55.3c-1.1-6.9-4-12.7-8.7-17.3c-4.8-4.6-11-7.1-18.9-7.1c-7.8,0-14.1,2.3-18.9,7.1
			C340,146.4,337.1,152.2,335.8,159.1z"/>
		<path class="st0" d="M418.8,206.2v-81.2H431v12.7c2.9-3.8,6.4-7.2,10.7-10c4.3-2.8,9.7-4.1,16.2-4.1c5.7,0,10.9,1.4,15.8,4
			c4.9,2.6,8.9,6.6,12,11.8s4.6,11.8,4.6,19.5v47.4h-12.3v-46.9c0-7.4-2.1-13.3-6.3-17.8c-4.3-4.4-9.7-6.7-16.4-6.7
			c-4.6,0-8.7,1.1-12.4,3.1c-3.7,2-6.6,4.9-8.9,8.7s-3.4,8-3.4,12.9v46.8H418.8z"/>
		<path class="st0" d="M510.7,206.2V92.4H523v113.7H510.7z"/>
		<path class="st0" d="M543.5,111.3V95.3h13.2v15.9C556.7,111.3,543.5,111.3,543.5,111.3z M544.1,206.2v-81.2h12.3v81.2H544.1z"/>
		<path class="st0" d="M577.4,206.2v-81.2h12.3v12.7c2.9-3.8,6.4-7.2,10.7-10c4.3-2.8,9.7-4.1,16.2-4.1c5.7,0,10.9,1.4,15.8,4
			c4.9,2.6,8.9,6.6,12,11.8c3.1,5.2,4.6,11.8,4.6,19.5v47.4h-12.3v-46.9c0-7.4-2.1-13.3-6.3-17.8c-4.3-4.4-9.7-6.7-16.4-6.7
			c-4.6,0-8.7,1.1-12.4,3.1c-3.7,2-6.6,4.9-8.9,8.7s-3.4,8-3.4,12.9v46.8H577.4z"/>
		<path class="st0" d="M705.5,207.5c-8.3,0-15.5-1.8-21.6-5.7c-6.1-3.7-11-8.7-14.4-15.2c-3.4-6.4-5.1-13.5-5.1-21.2
			c0-7.8,1.7-14.9,4.9-21.2c3.2-6.3,8-11.3,13.9-15.2c6.1-3.7,13.2-5.7,21.5-5.7s15.5,1.8,21.6,5.7c6,3.7,10.6,8.7,13.9,15.2
			c3.4,6.4,4.9,13.5,4.9,21.2v4.9h-68.1c0.6,4.8,2.1,9.2,4.6,13c2.5,4,5.7,7.1,9.8,9.5c4.1,2.3,8.9,3.5,14.3,3.5
			c5.7,0,10.6-1.2,14.4-3.8c3.8-2.6,6.9-5.8,9-9.8h13.3c-2.8,7.2-7.4,13.2-13.5,17.8C723,205.2,715.2,207.5,705.5,207.5z M677,159.1
			h55.3c-1.1-6.9-4-12.7-8.7-17.3c-4.8-4.6-11-7.1-18.9-7.1c-7.8,0-14.1,2.3-18.7,7.1C681.2,146.4,678.3,152.2,677,159.1z"/>
		<path class="st0" d="M794.3,207.5c-8,0-14.9-1.8-20.7-5.7c-6-3.7-10.4-8.7-13.8-15.2c-3.2-6.4-4.9-13.5-4.9-21.2
			c0-7.8,1.7-14.9,4.9-21.2c3.2-6.3,7.8-11.3,13.8-15.2c6-3.7,12.9-5.7,20.7-5.7c6.7,0,12.4,1.2,17.3,3.8c4.8,2.6,8.7,6.1,11.8,10.6
			v-13.2h12.3V206h-12.3v-13c-3.1,4.3-6.9,7.8-11.8,10.4C806.7,206.2,801,207.5,794.3,207.5z M796,196.5c6.1,0,11.2-1.4,15.3-4.3
			c4.1-2.8,7.4-6.6,9.5-11.3c2.1-4.8,3.2-9.8,3.2-15.3c0-5.7-1.1-10.7-3.2-15.5c-2.1-4.6-5.4-8.4-9.5-11.2
			c-4.1-2.8-9.4-4.3-15.3-4.3c-6,0-11,1.4-15.5,4.3c-4.3,2.8-7.7,6.6-10,11.2c-2.3,4.6-3.4,9.8-3.4,15.5c0,5.5,1.1,10.6,3.4,15.3
			c2.3,4.8,5.5,8.4,10,11.3C784.8,195.1,790,196.5,796,196.5z"/>
	</g>
	<circle class="st0" cx="860.8" cy="190.5" r="15.6"/>
</g>
</svg>
