<?xml version="1.0" encoding="utf-8"?>
<!-- Generator: Adobe Illustrator 26.3.1, SVG Export Plug-In . SVG Version: 6.00 Build 0)  -->
<svg version="1.1" id="Layer_1" xmlns="http://www.w3.org/2000/svg" xmlns:xlink="http://www.w3.org/1999/xlink" x="0px" y="0px"
	 viewBox="0 0 876.9 331.1" style="enable-background:new 0 0 876.9 331.1;" xml:space="preserve">
<style type="text/css">
	.st0{fill:#D1D3D4;}
</style>
<g>
	<g>
		<polygon class="st0" points="511.6,117.4 512.2,118.4 513.3,118.2 512.5,117.4 		"/>
		<polygon class="st0" points="513.2,118.8 513.3,119.8 514.3,119.9 514.5,121 515.6,121.2 515.6,121.9 516.7,122.1 517.1,123.3 
			518.6,123.4 518.4,122.1 517.2,121.8 516.8,120.8 515.9,120.8 515.7,119.7 514.6,119.5 514.5,118.7 		"/>
		<polygon class="st0" points="519.3,123.6 519.4,124.8 520.4,124.9 520.5,125.8 521.4,125.6 521.3,124.1 520.5,124.4 520.3,123.4 
					"/>
		<polygon class="st0" points="521.8,125.9 521.9,126.7 522.7,126.8 522.8,127.7 523.8,127.7 523.8,126.4 523.2,126.4 522.9,125.6 
					"/>
		<polygon class="st0" points="524.2,127.8 524.3,128.5 524.9,128.6 524.9,129.2 525.7,129.2 525.7,128 525.1,128.1 525,127.3 		"/>
		<polygon class="st0" points="524.3,93.2 525.8,95.1 523.1,93.8 		"/>
		<polygon class="st0" points="522.2,92.4 521.8,93.1 517.9,90.8 518.6,89.8 		"/>
		<polygon class="st0" points="517.3,89.4 516.8,90.3 513.6,88.5 514.3,87.6 		"/>
		<polygon class="st0" points="511.9,86.7 511.2,87.7 493,79.1 493.5,78.3 		"/>
		<polygon class="st0" points="493,77.8 492.4,78.7 485.7,75.5 486.2,74.6 		"/>
		<polygon class="st0" points="484.7,73.8 484.3,74.5 482,72.9 		"/>
		<polygon class="st0" points="522.3,87.8 524.6,90.1 523.6,88 		"/>
		<polygon class="st0" points="521,86.5 522,86.2 518.1,81.2 516.9,82.2 		"/>
		<polygon class="st0" points="515.9,80.6 516.7,80.1 513.6,76.2 512.6,76.3 512.7,77.4 		"/>
		<path class="st0" d="M510.7,73.8l0,1l-0.9,0.1c0,0-5.1-6-13-8.3C489,64.2,485,64,485,64l0.2-1c0,0,7.9,0.1,15.3,3.7
			C507.8,70.3,510.7,73.8,510.7,73.8z"/>
		<polygon class="st0" points="484.3,62.9 484.2,64.1 474.8,63.4 474.9,62.4 		"/>
		<polygon class="st0" points="473,62.3 472.9,63.3 469.3,62.7 		"/>
		<g>
			<path class="st0" d="M466.6,147.1c-0.1,0-0.1,0-0.2,0c-1-0.1-1.2-1-1.1-1.6l0-5.7c0-3.7-1.8-6.1-4.7-6.1c-3.3,0-4.4-0.2-4.4-0.2
				c-0.2,0-1.5-0.4-1.5-1.4c0-0.3,0.1-0.5,0.3-0.7c0.5-0.4,1.4-0.3,1.7-0.3c0,0,1.3,0,3.4-0.1c2-0.1,5.1-2.5,5.1-5.6
				c0-3.1,0.1-5.9,0.1-6.4c-0.1-0.3-0.2-1,0.2-1.5c0.2-0.2,0.5-0.4,1-0.4c0.5,0,0.9,0.2,1.1,0.5c0.2,0.3,0.2,0.6,0.1,0.8
				c0,0.7,0.2,4.9,0.2,7.1c0,1.9,1,5.1,4.6,5.1h3.5c0.3-0.1,0.9-0.3,1.5,0.1c0.2,0.1,0.6,0.5,0.6,1.1c0,0.3,0.1,1-0.4,1.3
				c-0.2,0.1-0.5,0.1-0.7,0c-0.5,0.1-1.7,0.3-3.7,0.3c-3.8,0-5.6,1.8-5.6,5.7v6.5c0,0,0.1,0.7-0.3,1.2
				C467.1,146.9,466.9,147.1,466.6,147.1z M456.4,132.5c0,0,1.1,0.2,4.2,0.2c3.4,0,5.7,2.9,5.7,7.1v5.7c0,0.3,0.1,0.5,0.3,0.5
				c0.1,0,0.1-0.2,0-0.3l0-6.6c0-4.5,2.2-6.7,6.6-6.7c2.5,0,3.6-0.3,3.6-0.3l0.1,0c0,0,0-0.1,0-0.1c0-0.1,0-0.3-0.1-0.3
				c-0.1-0.1-0.5,0-0.7,0l-0.2-0.5v-0.5l0,0.5l-0.2-0.5l-3.4,1c-3.8,0-5.6-3.2-5.6-6.1c0-2.4-0.2-7.1-0.2-7.1l0-0.1l0-0.1
				c0,0-0.1-0.1-0.3-0.1c-0.1,0-0.1,0-0.1,0c-0.1,0.1,0,0.4,0,0.6l0,0.1l0,0.1c0,0-0.1,3.1-0.1,6.5c0,3.7-3.6,6.4-6,6.6
				c-2.2,0.1-3.4,0.1-3.5,0.1c-0.4-0.1-0.9,0-1,0.1C455.7,132.3,456,132.5,456.4,132.5C456.4,132.5,456.4,132.5,456.4,132.5z"/>
		</g>
		<path class="st0" d="M488.8,1.9c0,0,0.3-0.7-0.7-0.8c-1.1-0.1-0.6,1.3-0.6,1.3s-0.1,3.1-0.1,6.5s-3.4,5.9-5.6,6.1
			c-2.2,0.1,0.3,0.1,0.3,0.1s-1.4-0.2-1.4,0.5c0,0.7,1.1,0.9,1.1,0.9s-2.7,0.2,0.6,0.2c3.3,0,5.2,2.8,5.2,6.6s0,5.7,0,5.7
			s-0.1,0.9,0.7,1c0.8,0.1,0.6-0.9,0.6-0.9s0-1.1,0-6.5s3.5-6.2,6.1-6.2s0-0.3,0-0.3s0.6,0.6,0.5-0.7s-1.5-0.7-1.5-0.7s4,0,0.2,0
			s-5.1-3.2-5.1-5.6S488.8,1.9,488.8,1.9z"/>
		<ellipse class="st0" cx="526.3" cy="48.4" rx="2.5" ry="3.5"/>
		<ellipse class="st0" cx="456" cy="93.6" rx="3.6" ry="2.4"/>
		<circle class="st0" cx="422.1" cy="74.8" r="2.2"/>
		<circle class="st0" cx="499.3" cy="159.2" r="2.6"/>
		<ellipse class="st0" cx="420.2" cy="124.1" rx="1.6" ry="1.7"/>
		<g>
			<path class="st0" d="M504.7,108.2c0,0,0.4,0.3,1.1,0.9C505.5,108.8,505.1,108.5,504.7,108.2z"/>
			<path class="st0" d="M546.8,79c-1.6-2.3-6-2.1-6.3,4c-0.3,6.1,4.7,8.2,4.7,8.2l1.9,34.9c-0.1-9.5-16.1-28.1-16.1-28.1
				s-5.7-23.3-21.8-34.9c-16.1-11.6-28.3-7.8-40-8.3c-11.7-0.5-18.6-6.7-18.6-6.7s14.3,20.9,25.6,28.4C487.4,84,502,88.7,507.7,90
				c5.7,1.3,24.9,12.5,24.9,12.5c26.8,34.3,7,54.4,7,54.4c1.7-17-10.9-26.6-10.9-26.6s0.1-10.5-7.5-12.4c-6-1.6-12.9-6.7-15.5-8.7
				c4.2,4.3,4.4,16.3,11.2,20.2c7.5,4.3,10.6,2,10.6,2c11.6,7.6,11,25.2,11,25.2c-74.7,62.1-151,19.9-159.3-48.5
				s45.1-90.3,47.5-92.9c2.3-2.7,27.5-9.3,27.5-9.3c-80-8.2-119.2,44.1-124.9,101.4c-5.7,57.3,44.7,120.9,114,118.9
				s95.5-64.8,95.5-64.8c11.1-9.2,9.5-33.4,9.5-33.4l-1.8-36.8c0,0,2.7,0.1,3.3-3C550.5,85.1,548.3,81.3,546.8,79z M507.7,88.2
				c-11.4-1.3-30-11.7-36.3-17.4c-6.4-5.7-15.5-17.7-15.5-17.7c9.2,3.7,12.8,3.1,12.8,3.1c25.9-1.1,31.4,1,44,11.6
				c12.7,10.6,15.5,27.2,15.5,27.2s-8.7-11.2-17.6-15.5c-16.4-8-34.2-11.3-34.2-11.3c14,3,27.1,9,35.2,13.5
				c8.2,4.4,18.2,17.6,18.2,17.6C520.1,94.7,513.7,88.9,507.7,88.2z M516.4,126.6c-3.8-3-6.2-12.3-6.2-12.3
				c1.4,2.3,9.3,3.9,13.6,6.5c3.3,2,3.5,9.1,3.5,9.1C522.1,130.4,520.2,129.7,516.4,126.6z M395.4,172.9c1,0,1.9,0.8,1.9,1.9
				s-0.8,1.9-1.9,1.9c-1,0-1.9-0.8-1.9-1.9S394.4,172.9,395.4,172.9z M412,15.2c1,0,1.7,0.8,1.7,1.7s-0.8,1.7-1.7,1.7
				s-1.7-0.8-1.7-1.7S411.1,15.2,412,15.2z M393.2,24.3c-0.4,0-0.6,0,0.3-0.1c1.5-0.1,3.8-1.8,3.8-4.1c0-2.3,0.1-2.4,0.1-2.4
				s-0.3-0.9,0.4-0.9c0.7,0,0.5,0.5,0.5,0.5s0.1,1.2,0.1,2.9c0,1.6,0.9,3.8,3.4,3.8c0.1-0.1,0.9-0.3,1,0.5c0,0.3,0,0.4-0.1,0.5
				c0.4,0.1,1,0.2-0.3,0.2c-1.8,0-4.1,0.5-4.1,4.3c0,1.4,0,2.1,0,2.4c0,0,0.1,0.7-0.4,0.6c-0.5-0.1-0.5-0.7-0.5-0.7
				c0-0.2,0-0.7,0-1.9c0-2.6-1.3-4.5-3.5-4.5c-2.2,0-0.4-0.1-0.4-0.1s-0.8-0.2-0.8-0.6C392.7,24.4,393,24.3,393.2,24.3z M393,207.2
				c-1,0-1.9-0.8-1.9-1.9s0.8-1.9,1.9-1.9c1,0,1.9,0.8,1.9,1.9S394,207.2,393,207.2z M495.9,194.2c0,0-8.5,5-10.8,5.9
				c-2.3,0.9-20.7,14.5-20.7,14.5c-2.3,6.3-7.2,8-11.1,7.4c-3.9-0.6-9-1.3-11.7-1.3c-2.7,0-3.1-0.7-2.9-1.5c0.2-0.7,1.3-0.7,3.7-0.6
				c2.4,0.1,5.8-1.6,10.2-4.1c4.4-2.5,9.2-1.2,11-1.4c1.9-0.2,16-11.9,16-11.9c-8.2,2.7-32.4,4.8-32.4,4.8
				c-5.3,3.5-18.1,6.6-28.9,3.7c-10.9-2.9-16.3-11.9-16.3-11.9c-2.4-0.6-8-4.4-12.7-7.8c-4.7-3.5-21.3-10-21.3-10
				c-4,2.5-10.9-1.9-12.3-5.2c-1.4-3.3-5.2-8.8-5.2-8.8s-1.7-2.2-1.5-3.1c0.3-0.9,1.5-0.3,1.5-0.3s0.7,1.1,3.5,4
				c2.8,2.9,6.1,2.8,10.9,6.2s3.4,5.3,3.4,5.3c3,0.8,19,8.6,19,8.6c-2.7-4-21.4-25.3-21.4-25.3s-9.5-3.2-18.1-15.2
				c-8.6-12-4.5-28-3.6-29.9c0.9-1.9,0.4-4.8,0.4-4.8s-0.3-2.9,0.7-2.7c1.1,0.1,1,0,1.5,3.6c0.5,3.6,3.5,7.1,3.5,7.1l-0.4-11.6
				l-4-22.7c0,0-1.4,0.9-3.5-3.4c-2.1-4.3,0.6-12.9,2.4-14.4c1.8-1.5,3.6-7.3,3.6-7.3l1.5,0.8c-1.8,1.8-1.7,5.7-0.9,12.9
				c0.9,7.2-1.5,8.2-1.8,10.7c-0.3,2.5,3.8,19.5,3.8,19.5c2.3-4.2,7.6-29.9,7.6-29.9s-1-16.9,5.2-26.8c6.2-10,13.8-12.2,17.3-13
				c3.5-0.8,8.8-3.3,9.1-3.5c0.3-0.2,2.6-2,3-1.2c0.4,0.8-0.5,1.2-0.5,1.2c-8.1,7-2.3,8-11.3,20s-16.9,17-19.2,19.2
				c-2.3,2.2-3.8,14.4-3.8,14.4c1.1-3.1,9.6-9.2,9.6-9.2c-0.1-2.5,1.8-4,4-4.1c2.3-0.1,4.6,0.7,1.7,4.1c-2.9,3.5-5.1,1.1-5.1,1.1
				c-13.7,9.6-15.3,26.2-15.3,26.2c2.5-5,8.1-8.3,8.1-8.3s-0.7-4.4,2.9-5.2c5.4-1.3,6,2.1,3.8,4.7c-2.2,2.7-5.6,1.8-5.6,1.8
				c-5,2.1-10.2,12.4-10.2,12.4l-0.1,13.8c0,0,5.2,3.9,8.5,12.6c3.3,8.7,4.2,23.4,4.2,23.4l9.9,11.2c-2.1-2.9-2.3-14.1-2.3-14.1
				s-2.2,1.6-2.1-3.7c0.1-5.2,5.6-4.2,6-0.4c0.3,3.8-2.3,4-2.3,4c-1.1,16.1,12.6,28.9,12.6,28.9c-1.2-2.3-2.1-12-2.1-12
				s-2.9,0.1-2.8-4.5c0.1-4.6,6.2-6.5,6.6-0.9c0.4,5.6-2.1,5-2.1,5c0.7,20.6,12.7,22.7,12.7,22.7c-2.1-1.8-3.7-6.7-3.7-6.7
				c6.4,6,15.5,2.7,27.5,6.2c12.1,3.5,21.1,10.6,21.1,10.6l14.9-0.9c-6.2-1.6-12.4-6.4-12.4-6.4s-3,2.3-4.7-1.9s1.1-5,4.2-3.8
				c3.2,1.1,1.5,4.3,1.5,4.3s3.4,3.4,11.3,5.8c8,2.5,19-1.3,19-1.3c-6.2-1.1-11.8-3.7-11.8-3.7c-4.6,2.5-9.8-4.5-6.4-5.8
				c3.3-1.3,4.1-0.3,6,1c1.9,1.3,0.9,3,0.9,3s2.5,2,7.1,3.1c4.6,1.1,10.2,0.3,10.2,0.3l9.8-5c0,0,1.9-1.3,2.5-0.3
				C497,193.6,495.9,194.2,495.9,194.2z M366.2,125.4c-0.5-0.1-0.5-0.7-0.5-0.7c0-0.2,0-0.7,0-1.9c0-2.6-1.3-4.5-3.5-4.5
				c-2.2,0-0.4-0.1-0.4-0.1s-0.8-0.2-0.8-0.6c0-0.2,0.2-0.3,0.5-0.3c-0.4,0-0.6,0,0.3-0.1c1.5-0.1,3.8-1.8,3.8-4.1
				c0-2.3,0.1-2.4,0.1-2.4s-0.3-0.9,0.4-0.9c0.7,0,0.5,0.5,0.5,0.5s0.1,1.2,0.1,2.9c0,1.6,0.9,3.8,3.4,3.8c0.1-0.1,0.9-0.3,1,0.5
				c0,0.3,0,0.4-0.1,0.5c0.4,0.1,1,0.2-0.3,0.2c-1.8,0-4.1,0.5-4.1,4.3c0,1.4,0,2.1,0,2.4C366.7,124.8,366.8,125.5,366.2,125.4z
				 M372.6,131.2c0.9,0,1.6,0.7,1.6,1.6c0,0.9-0.7,1.6-1.6,1.6c-0.9,0-1.6-0.7-1.6-1.6C371.1,131.9,371.8,131.2,372.6,131.2z
				 M507.6,190.6c-1.8,0-4.1,0.5-4.1,4.3c0,1.4,0,2.1,0,2.4c0,0,0.1,0.7-0.4,0.6c-0.5-0.1-0.5-0.7-0.5-0.7c0-0.2,0-0.7,0-1.9
				c0-2.6-1.3-4.5-3.5-4.5c-2.2,0-0.4-0.1-0.4-0.1s-0.8-0.2-0.8-0.6c0-0.2,0.2-0.3,0.5-0.3c-0.4,0-0.6,0,0.3-0.1
				c1.5-0.1,3.8-1.8,3.8-4.1c0-2.3,0.1-2.4,0.1-2.4s-0.3-0.9,0.4-0.9c0.7,0,0.5,0.5,0.5,0.5s0.1,1.2,0.1,2.9c0,1.6,0.9,3.8,3.4,3.8
				c0.1-0.1,0.9-0.3,1,0.5c0,0.3,0,0.4-0.1,0.5C508.3,190.5,508.9,190.6,507.6,190.6z M516.1,184.3c-1.2,0-2.1-0.9-2.1-2
				c0-1.1,1-2,2.1-2c1.2,0,2.1,0.9,2.1,2C518.2,183.4,517.3,184.3,516.1,184.3z M546.4,90.4l-0.1-2l-1,0l0,1.5c0,0-0.1,0.7-2.4-2.2
				c-2.2-2.9-0.7-9.3,1.5-8.5c2.2,0.7,4.2,4.5,4.6,7.5C549.4,89.6,546.4,90.4,546.4,90.4z"/>
			<path class="st0" d="M464.2,192.3c-1.5-1.1-2.5-1.4-3-0.9c-0.5,0.5-0.4,2,0.8,2.8c1.2,0.8,2.2,1.2,2.8,0.3
				C464.9,194.5,465.7,193.4,464.2,192.3z"/>
			<path class="st0" d="M443.2,192c-2.4,1.3,1.6,4.1,2.7,2.7C446.7,193.7,445.6,190.8,443.2,192z"/>
			<path class="st0" d="M416.4,196.9c8.7-0.3,20.7,7,20.7,7l2.9,0.1c0,0-10.8-7.9-19.9-9.7c-9.1-1.8-15.5,0.7-20.4-2.8
				c0,0,5.3,10.5,15.5,15.1c10.2,4.6,22.2,1,22.2,1s-16.9,2.5-25.6-5.1c0,0,14.1,6.6,25.3,3.5c0,0-23.2-2.6-28.2-6.4
				c0,0,15.4,2,24.1,4.1c0,0-3.6-3-14.3-5c-10.8-2-10.3,0-13.8-2.5C404.8,196.2,407.6,197.2,416.4,196.9z"/>
			<path class="st0" d="M385.6,164.9c-2.2-0.3-2.7,5-0.2,5.1C387.7,170.1,387.8,165.1,385.6,164.9z"/>
			<path class="st0" d="M373.5,149.4c-2.5-0.2-2.8,3.9-0.2,3.9C375,153.3,376,149.6,373.5,149.4z"/>
			<path class="st0" d="M346.2,115.4c0,0-4,14-0.6,22.1c3.3,8.1,7.3,13.5,10.5,15.7c0,0-9.3-9.4-9.6-21.3c0,0,5.6,17.2,12.7,21.3
				c0,0-12.3-22.2-12.6-24.5c-0.3-2.3,1-1.7,1-1.7l10.4,21.2c0,0-1.4-12.3-9.3-22c0,0-2.8-3.5-2-4.4c0.7-1,3.2,3.6,3.2,3.6
				s9,11.8,9.9,22.7c0,0,1.2,4.6,2.8,5.9c0,0-0.4-13.1-4.9-22.1C353.1,123.2,347.2,120.6,346.2,115.4z"/>
			<path class="st0" d="M367.2,90.7c-1.7-2-5.4,1.1-4,3.3C364.2,95.4,368.9,92.6,367.2,90.7z"/>
			<path class="st0" d="M373,73c-0.9-1.1-3.7-0.3-3.1,1.9C370.3,76.1,373.9,74.1,373,73z"/>
			<path class="st0" d="M372.6,42.6c0,0,0.9-1.3,1.5-0.9c0.6,0.5-0.9,1.8-0.9,1.8s-10.1,8.8-11,19.5c0,0,10.4-20.4,15.7-23.3
				c0,0,0.4-0.6,0.8-0.2s-0.3,1.7-0.3,1.7s-10.1,12-12.8,19.2c0,0,6.7-7.3,11.2-13.6c4.6-6.3,4.6-9.2,4.6-9.2s0.7-0.8,1.4-0.5
				c0.7,0.4-0.1,1.9-0.1,1.9s-3.4,8.2-8.2,13.8c-4.8,5.6-10.1,10.5-10.1,10.5l-1.8,3.6c0,0,10.8-7.3,16.6-15.9
				c5.8-8.6,5.4-14.6,8.6-17.3c0,0-11.3,3.1-17.3,8.2c-6,5.1-9,15.4-9.6,18.9C360.8,60.9,363.8,48.4,372.6,42.6z"/>
			<path class="st0" d="M346.5,69.1l-0.6,1l0.2,12.3c0,0,1.2-2.1,1.5-7.1S346.5,69.1,346.5,69.1z"/>
			<path class="st0" d="M343.7,77.2c0.2,3.4,1.4,4.8,1.4,4.8l-0.3-9.5C344.8,72.6,343.5,73.9,343.7,77.2z"/>
			<path class="st0" d="M361.9,172.6c-5-3.3-4.5-1.3-6.8-3l10.9,7.6C366.1,177.2,366.9,175.9,361.9,172.6z"/>
			<path class="st0" d="M359.8,177.2c2,1.6,5.3,0.9,5.3,0.9l-8.2-5.3C357,172.8,357.9,175.6,359.8,177.2z"/>
			<path class="st0" d="M460.7,214.9c0,0-3.2-0.2-6.7,0.9c-3.5,1-5.2,3.4-6.1,3.4l13.2-3.5L460.7,214.9z"/>
			<path class="st0" d="M457.9,220c1.7-0.7,3.6-3.7,3.6-3.7l-10.1,4C451.4,220.3,456.2,220.7,457.9,220z"/>
		</g>
	</g>
	<g>
		<path class="st0" d="M342.3,287l18.7-42.5h16.1v2.7c-1.5,0-2.8,0.2-3.7,0.6c-0.9,0.3-1.7,0.9-2.2,1.7c-0.5,0.8-0.8,1.9-1,3.3
			c-0.2,1.4-0.3,3.2-0.3,5.3v28.2c0,2.4,0.1,4.3,0.3,5.7c0.2,1.4,0.6,2.5,1.1,3.2c0.6,0.8,1.3,1.3,2.4,1.5c1,0.2,2.4,0.4,4.1,0.4
			v2.7h-23.3v-2.7c1.7,0,3-0.2,4.1-0.5c1-0.3,1.8-0.8,2.4-1.5c0.6-0.7,1-1.7,1.2-3.1c0.2-1.3,0.3-3.1,0.3-5.4v-33.4h-0.7l-21,47.2
			h-1.6l-20.6-47.2h-0.3v32.9c0,2.4,0.1,4.3,0.3,5.7c0.2,1.4,0.6,2.5,1.1,3.2c0.6,0.8,1.3,1.3,2.4,1.5c1,0.2,2.4,0.4,4.1,0.4v2.7
			H306v-2.7c1.7,0,3-0.2,4.1-0.5c1-0.3,1.8-0.8,2.4-1.5c0.6-0.7,1-1.7,1.2-3.1c0.2-1.3,0.3-3.1,0.3-5.4v-29.2c0-2-0.1-3.7-0.3-5
			c-0.2-1.3-0.5-2.4-1-3.1c-0.5-0.8-1.2-1.3-2.2-1.6c-1-0.3-2.2-0.5-3.7-0.6v-2.7h17.2L342,287H342.3z"/>
		<path class="st0" d="M399.8,269.4c2.6,0,4.8-0.2,6.5-0.5c1.7-0.3,3.1-0.8,4.2-1.5c1-0.7,1.8-1.5,2.2-2.6c0.5-1.1,0.7-2.3,0.7-3.7
			h2.5v19.6h-2.5c0-1.4-0.2-2.7-0.6-3.7c-0.4-1.1-1.1-1.9-2.2-2.6c-1-0.7-2.4-1.2-4.2-1.6c-1.8-0.4-4-0.5-6.7-0.5v16.3
			c0,1.6,0.2,2.9,0.6,3.9c0.4,1,1,1.9,2,2.5c0.9,0.6,2.2,1.1,3.7,1.4c1.5,0.3,3.4,0.4,5.7,0.4c2.5,0,4.7-0.2,6.5-0.5
			c1.8-0.4,3.3-1,4.5-1.8c1.2-0.9,2.2-2,2.9-3.4c0.7-1.4,1.3-3.2,1.8-5.3h2.7l-1.1,14.2h-44.7v-2.7c1.7,0,3-0.2,4.1-0.4
			c1-0.2,1.8-0.6,2.4-1.2c0.6-0.6,1-1.4,1.2-2.4c0.2-1.1,0.3-2.4,0.3-4.1v-33.5c0-1.7-0.1-3-0.3-4.1c-0.2-1-0.5-1.8-1-2.4
			c-0.5-0.6-1.2-1-2.2-1.2c-1-0.2-2.2-0.4-3.7-0.5v-2.7h41.6l0.6,12.7h-2.5c-0.3-1.9-0.8-3.5-1.4-4.7c-0.6-1.2-1.5-2.2-2.7-2.9
			c-1.1-0.7-2.6-1.2-4.3-1.5c-1.7-0.3-3.8-0.4-6.3-0.4H401c-0.8,0-1.2,0.4-1.2,1.2V269.4z"/>
		<path class="st0" d="M484.4,299.9h-49.9v-0.3l37.8-52.1h-19.7c-3.4,0-5.9,0.8-7.6,2.3c-1.7,1.5-2.9,4.2-3.5,7.9h-2.7l1.1-13.2
			h43.8v0.3l-37.5,51.8h22.3c2.4,0,4.5-0.2,6-0.5c1.6-0.4,2.9-1,3.8-2c1-1,1.7-2.4,2.3-4.1c0.5-1.7,1-4,1.5-6.9h3.1L484.4,299.9z"/>
		<path class="st0" d="M545.2,258.2h-2.9c-0.1-2.1-0.5-3.8-1-5.2c-0.5-1.4-1.3-2.5-2.3-3.3c-1-0.8-2.2-1.4-3.7-1.7
			c-1.5-0.3-3.3-0.5-5.3-0.5c-1.8,0-3.2,0-4.3,0.1c-1.1,0.1-1.9,0.2-2.5,0.4c-0.6,0.2-0.9,0.4-1.1,0.7c-0.2,0.3-0.3,0.6-0.3,1v38.5
			c0,1.5,0.1,2.9,0.3,4c0.2,1.1,0.6,2,1.3,2.7c0.6,0.7,1.6,1.2,2.8,1.6c1.2,0.4,2.8,0.6,4.9,0.6v2.7H504v-2.7c2,0,3.6-0.3,4.9-0.6
			c1.2-0.4,2.2-0.9,2.8-1.6c0.6-0.7,1.1-1.6,1.3-2.7c0.2-1.1,0.3-2.4,0.3-4v-38.5c0-0.4-0.1-0.8-0.3-1c-0.2-0.3-0.5-0.5-1-0.7
			c-0.5-0.2-1.2-0.3-2.1-0.4c-0.9-0.1-2.1-0.1-3.7-0.1c-1.9,0-3.6,0.1-5.2,0.2c-1.6,0.1-3,0.6-4.2,1.3c-1.2,0.7-2.1,1.8-2.8,3.2
			c-0.7,1.4-1.1,3.4-1.2,6h-2.7v-13.7h54.3L545.2,258.2z"/>
		<path class="st0" d="M565.2,286.3c0,2.4,0.1,4.3,0.3,5.7c0.2,1.4,0.6,2.5,1.1,3.2c0.6,0.8,1.3,1.3,2.4,1.5c1,0.2,2.4,0.4,4.1,0.4
			v2.7h-23.3v-2.7c1.7,0,3-0.2,4.1-0.5c1-0.3,1.8-0.8,2.4-1.5c0.6-0.7,1-1.7,1.2-3.1c0.2-1.3,0.3-3.1,0.3-5.4v-29.2
			c0-2-0.1-3.7-0.3-5c-0.2-1.3-0.5-2.4-1-3.1c-0.5-0.8-1.2-1.3-2.2-1.6c-1-0.3-2.2-0.5-3.7-0.6v-2.7h21.9v2.7
			c-1.5,0-2.8,0.2-3.7,0.6c-0.9,0.3-1.7,0.9-2.2,1.7c-0.5,0.8-0.8,1.9-1,3.3c-0.2,1.4-0.3,3.2-0.3,5.3V286.3z"/>
	</g>
	<g>
		<path class="st0" d="M313.3,311.1l8.6,18.7h-1.5l-2.9-6.4h-9.1l-2.9,6.4h-1.5l8.6-18.7H313.3z M316.9,322.2l-4-8.7l-4,8.7H316.9z"
			/>
		<path class="st0" d="M350.4,312.5v1.6c-2.2-1.2-4.5-1.8-6.6-1.8c-2.3,0-4.2,0.8-5.8,2.3c-1.5,1.6-2.3,3.5-2.3,5.9
			c0,2.4,0.8,4.3,2.3,5.9c1.6,1.5,3.5,2.3,6,2.3c2,0,4.2-0.6,6.6-1.9v1.5c-2.2,1.2-4.4,1.7-6.6,1.7c-2.8,0-5.2-0.9-7.1-2.7
			c-1.9-1.8-2.8-4.1-2.8-6.8c0-2.7,1-5,2.9-6.8c1.9-1.8,4.2-2.7,6.9-2.7C346,311,348.1,311.5,350.4,312.5z"/>
		<path class="st0" d="M381,312.5v1.6c-2.2-1.2-4.5-1.8-6.6-1.8c-2.3,0-4.2,0.8-5.8,2.3c-1.5,1.6-2.3,3.5-2.3,5.9
			c0,2.4,0.8,4.3,2.3,5.9c1.6,1.5,3.5,2.3,6,2.3c2,0,4.2-0.6,6.6-1.9v1.5c-2.2,1.2-4.4,1.7-6.6,1.7c-2.8,0-5.2-0.9-7.1-2.7
			c-1.9-1.8-2.8-4.1-2.8-6.8c0-2.7,1-5,2.9-6.8c1.9-1.8,4.2-2.7,6.9-2.7C376.6,311,378.8,311.5,381,312.5z"/>
		<path class="st0" d="M406.4,311.2v1.2h-8.7v7.4h8.5v1.2h-8.5v7.5h8.9v1.2h-10.3v-18.5H406.4z"/>
		<path class="st0" d="M430.5,312.1v1.6c-1.6-0.9-3-1.4-4.2-1.4c-1.1,0-2,0.3-2.8,1c-0.7,0.7-1.1,1.5-1.1,2.5c0,0.7,0.2,1.4,0.7,1.9
			s1.4,1.1,2.8,1.7c1.4,0.5,2.4,1,3.1,1.3c0.6,0.4,1.2,0.9,1.6,1.5c0.5,0.7,0.7,1.5,0.7,2.6c0,1.4-0.5,2.6-1.6,3.6
			c-1,1-2.3,1.5-3.8,1.5c-1.5,0-3.1-0.5-4.8-1.6v-1.7c1.8,1.3,3.4,2,4.7,2c1.1,0,2-0.4,2.8-1.1c0.8-0.7,1.1-1.6,1.1-2.6
			c0-0.8-0.2-1.5-0.7-2.1c-0.5-0.6-1.4-1.2-2.9-1.8c-1.4-0.5-2.5-1-3.1-1.3c-0.6-0.3-1.1-0.8-1.6-1.4c-0.4-0.6-0.6-1.4-0.6-2.4
			c0-1.4,0.5-2.5,1.6-3.5c1-1,2.3-1.4,3.8-1.4C427.7,311,429.1,311.4,430.5,312.1z"/>
		<path class="st0" d="M455.8,311c2.7,0,5.1,0.9,7,2.8c1.9,1.8,2.9,4.1,2.9,6.8c0,2.6-1,4.9-2.9,6.7c-1.9,1.8-4.2,2.8-7,2.8
			c-2.7,0-5.1-0.9-6.9-2.8c-1.9-1.8-2.8-4.1-2.8-6.7c0-2.7,0.9-4.9,2.8-6.8C450.8,311.9,453.1,311,455.8,311z M455.9,328.7
			c2.3,0,4.3-0.8,5.8-2.4c1.6-1.6,2.4-3.5,2.4-5.8c0-2.3-0.8-4.2-2.4-5.8s-3.5-2.4-5.8-2.4c-2.3,0-4.3,0.8-5.9,2.4
			c-1.6,1.6-2.4,3.5-2.4,5.8c0,2.3,0.8,4.2,2.4,5.8C451.6,327.9,453.5,328.7,455.9,328.7z"/>
		<path class="st0" d="M481.4,311.2h4.8c2,0,3.5,0.4,4.6,1.3c1.1,0.9,1.6,2,1.6,3.5c0,2.1-1.2,3.6-3.5,4.5c0.6,0.3,1.4,1.2,2.5,2.8
			l4.2,6.4h-1.7l-3.2-5.1c-1.1-1.7-1.9-2.8-2.5-3.2c-0.6-0.4-1.5-0.6-2.6-0.6h-2.5v8.9h-1.4V311.2z M482.8,312.4v7.3h3.1
			c1.6,0,2.8-0.3,3.6-0.9c0.8-0.6,1.2-1.5,1.2-2.7c0-1.1-0.4-2-1.3-2.7c-0.8-0.6-2-1-3.6-1H482.8z"/>
		<path class="st0" d="M510.6,311.2v18.5h-1.4v-18.5H510.6z"/>
		<path class="st0" d="M536.1,311c2.7,0,5.1,0.9,7,2.8c1.9,1.8,2.9,4.1,2.9,6.8c0,2.6-1,4.9-2.9,6.7c-1.9,1.8-4.2,2.8-7,2.8
			c-2.7,0-5.1-0.9-6.9-2.8c-1.9-1.8-2.8-4.1-2.8-6.7c0-2.7,0.9-4.9,2.8-6.8C531.1,311.9,533.4,311,536.1,311z M536.2,328.7
			c2.3,0,4.3-0.8,5.8-2.4c1.6-1.6,2.4-3.5,2.4-5.8c0-2.3-0.8-4.2-2.4-5.8s-3.5-2.4-5.8-2.4c-2.3,0-4.3,0.8-5.9,2.4
			c-1.6,1.6-2.4,3.5-2.4,5.8c0,2.3,0.8,4.2,2.4,5.8C531.9,327.9,533.9,328.7,536.2,328.7z"/>
		<path class="st0" d="M570.4,312.1v1.6c-1.6-0.9-3-1.4-4.2-1.4c-1.1,0-2,0.3-2.8,1c-0.7,0.7-1.1,1.5-1.1,2.5c0,0.7,0.2,1.4,0.7,1.9
			s1.4,1.1,2.8,1.7c1.4,0.5,2.4,1,3.1,1.3c0.6,0.4,1.2,0.9,1.6,1.5c0.5,0.7,0.7,1.5,0.7,2.6c0,1.4-0.5,2.6-1.6,3.6
			c-1,1-2.3,1.5-3.8,1.5c-1.5,0-3.1-0.5-4.8-1.6v-1.7c1.8,1.3,3.4,2,4.7,2c1.1,0,2-0.4,2.8-1.1c0.8-0.7,1.1-1.6,1.1-2.6
			c0-0.8-0.2-1.5-0.7-2.1c-0.5-0.6-1.4-1.2-2.9-1.8c-1.4-0.5-2.5-1-3.1-1.3c-0.6-0.3-1.1-0.8-1.6-1.4c-0.4-0.6-0.6-1.4-0.6-2.4
			c0-1.4,0.5-2.5,1.6-3.5c1-1,2.3-1.4,3.8-1.4C567.6,311,569,311.4,570.4,312.1z"/>
	</g>
</g>
</svg>
